<svg id="Livello_1" data-name="Livello 1" xmlns="http://www.w3.org/2000/svg" viewBox="0 0 399 402"><defs><style>.cls-1{fill:#fff;}</style></defs><circle cx="199.5" cy="201" r="191.75"/><path class="cls-1" d="M95.79,275.52V145.45H69.18v-19H143.7v19H117.08V275.52Z"/><path class="cls-1" d="M186.19,277q-14.81,0-23.37-9.15t-8.56-24.28q0-23.79,21.29-42.58-1.17-2.42-4.82-9.11t-5.58-10.73a69.39,69.39,0,0,1-3.74-10.47,45,45,0,0,1-1.83-12.27q0-15,8.65-24.2T191.52,125q13.71,0,22.83,7.61t9.1,20.5a40.31,40.31,0,0,1-1.83,11.81,57.11,57.11,0,0,1-4.36,10.64,77.39,77.39,0,0,1-6.53,9.86q-4,5.19-6.95,8.4T196.84,201l21.29,31.94a42.24,42.24,0,0,0,2.58-8.32q1.08-5,1.45-7.78t1.29-10.52h21.29a62,62,0,0,1-3.91,21,88,88,0,0,1-9.31,19q6.24,7.82,13.22,7.82V277a35.56,35.56,0,0,1-4-.21,15.52,15.52,0,0,1-3.78-.91c-1.28-.47-2.36-.86-3.25-1.16a14.38,14.38,0,0,1-3.2-1.75c-1.24-.86-2.15-1.44-2.7-1.75a17.26,17.26,0,0,1-2.74-2.2c-1.28-1.17-2.06-1.86-2.33-2.08s-1.11-1-2.5-2.37-2.11-2.06-2.16-2.12a37.57,37.57,0,0,1-13.35,10.6A41.82,41.82,0,0,1,186.19,277Zm0-17.46q10.16,0,18.63-10.65l-10.23-15.22c-.72-1.16-2-2.87-3.7-5.11s-3.25-4.33-4.53-6.24a22.52,22.52,0,0,1-2.74-5.36,38.4,38.4,0,0,0-5.87,11.89,49.13,49.13,0,0,0-2.2,14.72A23.52,23.52,0,0,0,178,255.06Q180.55,259.55,186.19,259.55Zm2.75-69.2a62.62,62.62,0,0,0,9.27-17.09,56.88,56.88,0,0,0,3.95-20.16,10,10,0,0,0-10.64-10.65,8.61,8.61,0,0,0-8,4.7,22.87,22.87,0,0,0-2.62,11.27,53.62,53.62,0,0,0,1.42,11.73,95.06,95.06,0,0,0,2.82,10.35Q186.52,184.54,188.94,190.35Z"/><path class="cls-1" d="M281.92,275.52V145.45H255.3v-19h74.52v19H303.21V275.52Z"/></svg>